<svg preserveAspectRatio="none" width="100%" height="100%" overflow="visible" style="display: block;" viewBox="0 0 9.83333 13.8333" fill="none" xmlns="http://www.w3.org/2000/svg">
<g id="Container">
<path id="Icon" d="M2.45833 11.375H7.375V10.9583H2.45833V11.375V11.375M2.45833 8.375H7.375V7.95833H2.45833V8.375V8.375M1.08333 13.8333C0.763889 13.8333 0.503472 13.7326 0.302083 13.5312C0.100694 13.3299 0 13.0694 0 12.75V1.08333C0 0.763889 0.100694 0.503472 0.302083 0.302083C0.503472 0.100694 0.763889 0 1.08333 0H7.45833L9.83333 2.375V12.75C9.83333 13.0694 9.73264 13.3299 9.53125 13.5312C9.32986 13.7326 9.06944 13.8333 8.75 13.8333H1.08333V13.8333M7 2.83333V0.416667H1.08333C0.916667 0.416667 0.763889 0.486111 0.625 0.625C0.486111 0.763889 0.416667 0.916667 0.416667 1.08333V12.75C0.416667 12.9167 0.486111 13.0694 0.625 13.2083C0.763889 13.3472 0.916667 13.4167 1.08333 13.4167H8.75C8.91667 13.4167 9.06944 13.3472 9.20833 13.2083C9.34722 13.0694 9.41667 12.9167 9.41667 12.75V2.83333H7V2.83333M0.416667 0.416667V0.416667V3.27083V3.27083V0.416667V3.27083V3.27083V12.75C0.416667 12.9167 0.416667 13.0694 0.416667 13.2083C0.416667 13.3472 0.416667 13.4167 0.416667 13.4167V13.4167C0.416667 13.4167 0.416667 13.3472 0.416667 13.2083C0.416667 13.0694 0.416667 12.9167 0.416667 12.75V1.08333C0.416667 0.916667 0.416667 0.763889 0.416667 0.625C0.416667 0.486111 0.416667 0.416667 0.416667 0.416667V0.416667" fill="var(--fill-0, #F5F5F0)"/>
</g>
</svg>
