<svg preserveAspectRatio="none" width="100%" height="100%" overflow="visible" style="display: block;" viewBox="0 0 11.0104 6.88333" fill="none" xmlns="http://www.w3.org/2000/svg">
<g id="Container">
<path id="Icon" d="M0.670833 6.88333C0.456944 6.88333 0.291667 6.82014 0.175 6.69375C0.0583333 6.56736 0 6.40694 0 6.2125V0.758333C0 0.563889 0.0729167 0.388889 0.21875 0.233333C0.364583 0.0777778 0.544444 0 0.758333 0H3.13542L4.53542 1.4H8.93958C9.08542 1.4 9.20208 1.42431 9.28958 1.47292C9.37708 1.52153 9.46944 1.59444 9.56667 1.69167H4.43333L3.03333 0.291667H0.758333C0.622222 0.291667 0.510417 0.335417 0.422917 0.422917C0.335417 0.510417 0.291667 0.622222 0.291667 0.758333V6.125C0.291667 6.23194 0.318403 6.31944 0.371875 6.3875C0.425347 6.45556 0.495833 6.51389 0.583333 6.5625L1.61875 3.03333H11.0104L10.0042 6.41667C9.95556 6.55278 9.90208 6.66458 9.84375 6.75208C9.78542 6.83958 9.67361 6.88333 9.50833 6.88333H0.670833V6.88333M0.875 6.59167H9.63958L10.6313 3.325H1.8375L0.875 6.59167V6.59167M0.875 6.59167L1.8375 3.325V3.325L0.875 6.59167V6.59167V6.59167M0.291667 1.69167V0.758333C0.291667 0.622222 0.291667 0.510417 0.291667 0.422917C0.291667 0.335417 0.291667 0.291667 0.291667 0.291667V0.291667V1.69167V1.69167V1.69167" fill="var(--fill-0, #1A1A1A)"/>
</g>
</svg>
